<?xml version="1.0" standalone="no"?>
<!DOCTYPE svg PUBLIC "-//W3C//DTD SVG 20010904//EN"
 "http://www.w3.org/TR/2001/REC-SVG-20010904/DTD/svg10.dtd">
<svg version="1.0" xmlns="http://www.w3.org/2000/svg"
 width="500.000000pt" height="500.000000pt" viewBox="0 0 500.000000 500.000000"
 preserveAspectRatio="xMidYMid meet">

<g transform="translate(0.000000,500.000000) scale(0.100000,-0.100000)"
fill="#000000" stroke="none">
<path d="M3515 3890 c-428 -49 -772 -285 -959 -657 -72 -145 -111 -295 -126
-483 -46 -619 268 -1123 815 -1308 279 -94 678 -83 935 25 318 135 560 382
676 690 23 61 24 73 24 348 l0 285 -655 0 -655 0 0 -220 0 -220 381 0 381 0
-7 -27 c-11 -46 -65 -145 -107 -197 -120 -151 -276 -219 -503 -218 -188 1
-323 45 -443 145 -157 131 -232 319 -232 584 0 238 57 392 194 528 91 91 172
137 283 160 81 17 226 19 309 4 120 -22 269 -116 324 -204 l22 -35 333 0 333
0 -18 61 c-25 82 -81 198 -134 278 -51 76 -166 194 -246 250 -125 89 -304 162
-481 196 -102 19 -334 27 -444 15z"/>
<path d="M230 3863 c-4 -144 2 -2458 6 -2462 3 -3 135 -6 292 -6 l287 0 5 470
c3 259 8 469 13 468 4 -2 37 -3 75 -3 l67 0 105 -191 c58 -106 125 -229 150
-274 25 -45 92 -168 150 -273 l105 -192 110 -2 c127 -2 549 3 553 7 2 2 -124
220 -279 485 -281 483 -289 499 -242 500 25 0 168 72 228 114 111 80 196 199
247 348 30 87 32 102 33 233 0 164 -13 223 -80 362 -115 235 -359 383 -685
412 -119 11 -1140 14 -1140 4z m1054 -498 c94 -8 179 -65 224 -151 22 -41 32
-146 21 -212 -17 -110 -64 -178 -156 -223 -46 -23 -58 -24 -300 -27 l-253 -4
0 310 c0 170 3 312 7 315 7 7 345 1 457 -8z"/>
</g>
</svg>
