<?xml version="1.0" encoding="UTF-8"?>
<!DOCTYPE svg PUBLIC "-//W3C//DTD SVG 1.1//EN" "http://www.w3.org/Graphics/SVG/1.1/DTD/svg11.dtd">
<svg xmlns="http://www.w3.org/2000/svg" version="1.1" width="500px" height="500px" style="shape-rendering:geometricPrecision; text-rendering:geometricPrecision; image-rendering:optimizeQuality; fill-rule:evenodd; clip-rule:evenodd" xmlns:xlink="http://www.w3.org/1999/xlink">
<g><path style="opacity:1" fill="#050505" d="M 445.5,132.5 C 446.035,134.446 447.368,135.446 449.5,135.5C 458.645,142.644 465.978,151.311 471.5,161.5C 471.427,163.027 472.094,164.027 473.5,164.5C 478.765,172.713 482.098,181.713 483.5,191.5C 461.164,191.667 438.831,191.5 416.5,191C 413.378,186.046 409.711,181.546 405.5,177.5C 405.027,176.094 404.027,175.427 402.5,175.5C 378.766,162.052 355.099,162.219 331.5,176C 312.233,191.209 302.899,211.209 303.5,236C 303.619,250.972 306.952,265.139 313.5,278.5C 313.427,280.027 314.094,281.027 315.5,281.5C 315.427,283.027 316.094,284.027 317.5,284.5C 318.5,284.833 319.167,285.5 319.5,286.5C 319.427,288.027 320.094,289.027 321.5,289.5C 341.592,306.623 364.592,312.123 390.5,306C 398.022,303.904 405.022,300.738 411.5,296.5C 414.089,295.581 416.089,293.914 417.5,291.5C 418.124,289.246 419.457,287.579 421.5,286.5C 423.262,285.738 424.262,284.404 424.5,282.5C 427.093,277.647 429.426,272.647 431.5,267.5C 432.404,266.791 432.737,265.791 432.5,264.5C 407.167,264.5 381.833,264.5 356.5,264.5C 356.5,249.833 356.5,235.167 356.5,220.5C 400.5,220.5 444.5,220.5 488.5,220.5C 498.248,270.931 482.581,310.931 441.5,340.5C 439.011,340.241 437.344,341.241 436.5,343.5C 411.148,359.25 383.482,365.417 353.5,362C 345.536,361.343 337.869,359.843 330.5,357.5C 328.485,356.076 326.152,355.41 323.5,355.5C 323.167,355.5 322.833,355.5 322.5,355.5C 321.365,353.787 319.698,353.12 317.5,353.5C 308.565,350.703 300.565,346.369 293.5,340.5C 293.027,339.094 292.027,338.427 290.5,338.5C 263.843,318.938 248.009,292.605 243,259.5C 238.856,232.325 241.856,205.991 252,180.5C 254.77,173.944 258.27,167.944 262.5,162.5C 263.906,162.027 264.573,161.027 264.5,159.5C 266.882,154.752 270.216,150.752 274.5,147.5C 276.833,145.833 278.833,143.833 280.5,141.5C 292.242,129.619 306.242,121.286 322.5,116.5C 325.152,116.59 327.485,115.924 329.5,114.5C 332.152,114.59 334.485,113.924 336.5,112.5C 372.297,104.78 406.297,109.614 438.5,127C 441.02,128.697 443.353,130.53 445.5,132.5 Z"/></g>
<g><path style="opacity:0.998" fill="#747474" d="M 96.5,267.5 C 91.6946,266.513 86.6946,266.179 81.5,266.5C 81.5,297.833 81.5,329.167 81.5,360.5C 61.5,360.5 41.5,360.5 21.5,360.5C 20.2257,277.497 20.2257,194.497 21.5,111.5C 56.8349,111.333 92.1682,111.5 127.5,112C 154.066,111.626 176.9,120.459 196,138.5C 214.94,163.406 219.274,190.739 209,220.5C 203.899,231.523 196.733,241.023 187.5,249C 178.72,254.388 169.72,259.221 160.5,263.5C 178.967,295.796 197.634,327.963 216.5,360C 193.5,360.667 170.5,360.667 147.5,360C 130.095,329.353 113.095,298.52 96.5,267.5 Z M 82.5,162.5 C 98.1997,162.159 113.866,162.659 129.5,164C 144.526,167.705 152.193,177.372 152.5,193C 151.568,212.765 141.235,222.932 121.5,223.5C 108.5,223.5 95.5,223.5 82.5,223.5C 82.5,203.167 82.5,182.833 82.5,162.5 Z"/></g>
<g><path style="opacity:0.937" fill="#696969" d="M 336.5,112.5 C 334.485,113.924 332.152,114.59 329.5,114.5C 331.515,113.076 333.848,112.41 336.5,112.5 Z"/></g>
<g><path style="opacity:0.925" fill="#676767" d="M 329.5,114.5 C 327.485,115.924 325.152,116.59 322.5,116.5C 324.515,115.076 326.848,114.41 329.5,114.5 Z"/></g>
<g><path style="opacity:0.992" fill="#797979" d="M 445.5,132.5 C 447.23,133.026 448.564,134.026 449.5,135.5C 447.368,135.446 446.035,134.446 445.5,132.5 Z"/></g>
<g><path style="opacity:0.651" fill="#969696" d="M 280.5,141.5 C 278.833,143.833 276.833,145.833 274.5,147.5C 275.5,144.5 277.5,142.5 280.5,141.5 Z"/></g>
<g><path style="opacity:0.561" fill="#8b8b8b" d="M 264.5,159.5 C 264.573,161.027 263.906,162.027 262.5,162.5C 262.427,160.973 263.094,159.973 264.5,159.5 Z"/></g>
<g><path style="opacity:0.467" fill="#929292" d="M 471.5,161.5 C 472.906,161.973 473.573,162.973 473.5,164.5C 472.094,164.027 471.427,163.027 471.5,161.5 Z"/></g>
<g><path style="opacity:0.336" fill="#c5c5c5" d="M 82.5,162.5 C 82.5,182.833 82.5,203.167 82.5,223.5C 95.5,223.5 108.5,223.5 121.5,223.5C 108.344,224.496 95.0105,224.829 81.5,224.5C 81.1695,203.66 81.5028,182.993 82.5,162.5 Z"/></g>
<g><path style="opacity:0.733" fill="#8f8f8f" d="M 402.5,175.5 C 404.027,175.427 405.027,176.094 405.5,177.5C 403.973,177.573 402.973,176.906 402.5,175.5 Z"/></g>
<g><path style="opacity:0.513" fill="#929292" d="M 356.5,220.5 C 356.5,235.167 356.5,249.833 356.5,264.5C 381.833,264.5 407.167,264.5 432.5,264.5C 432.737,265.791 432.404,266.791 431.5,267.5C 406.522,265.509 381.189,264.843 355.5,265.5C 355.171,250.324 355.504,235.324 356.5,220.5 Z"/></g>
<g><path style="opacity:0.34" fill="#cccccc" d="M 96.5,267.5 C 91.8333,267.5 87.1667,267.5 82.5,267.5C 82.8315,298.671 82.4982,329.671 81.5,360.5C 81.5,329.167 81.5,297.833 81.5,266.5C 86.6946,266.179 91.6946,266.513 96.5,267.5 Z"/></g>
<g><path style="opacity:0.498" fill="#909090" d="M 313.5,278.5 C 314.906,278.973 315.573,279.973 315.5,281.5C 314.094,281.027 313.427,280.027 313.5,278.5 Z"/></g>
<g><path style="opacity:0.584" fill="#848484" d="M 315.5,281.5 C 316.906,281.973 317.573,282.973 317.5,284.5C 316.094,284.027 315.427,283.027 315.5,281.5 Z"/></g>
<g><path style="opacity:0.863" fill="#7a7a7a" d="M 424.5,282.5 C 424.262,284.404 423.262,285.738 421.5,286.5C 421.738,284.596 422.738,283.262 424.5,282.5 Z"/></g>
<g><path style="opacity:0.812" fill="#818181" d="M 319.5,286.5 C 320.906,286.973 321.573,287.973 321.5,289.5C 320.094,289.027 319.427,288.027 319.5,286.5 Z"/></g>
<g><path style="opacity:0.878" fill="#656565" d="M 417.5,291.5 C 416.089,293.914 414.089,295.581 411.5,296.5C 412.911,294.086 414.911,292.419 417.5,291.5 Z"/></g>
<g><path style="opacity:0.612" fill="#777777" d="M 290.5,338.5 C 292.027,338.427 293.027,339.094 293.5,340.5C 291.973,340.573 290.973,339.906 290.5,338.5 Z"/></g>
<g><path style="opacity:0.984" fill="#727272" d="M 441.5,340.5 C 440.101,341.89 438.434,342.89 436.5,343.5C 437.344,341.241 439.011,340.241 441.5,340.5 Z"/></g>
<g><path style="opacity:0.957" fill="#797979" d="M 317.5,353.5 C 319.698,353.12 321.365,353.787 322.5,355.5C 320.597,355.204 318.93,354.537 317.5,353.5 Z"/></g>
<g><path style="opacity:0.988" fill="#606060" d="M 323.5,355.5 C 326.152,355.41 328.485,356.076 330.5,357.5C 327.848,357.59 325.515,356.924 323.5,355.5 Z"/></g>
</svg>
